<?xml version="1.0" encoding="UTF-8" standalone="no"?>
<!-- Created with Inkscape (http://www.inkscape.org/) -->

<svg
   width="256"
   height="256"
   version="1.1"
   viewBox="0 0 256 256"
   xml:space="preserve"
   id="svg26240"
   sodipodi:docname="hl2-git-icon.svg"
   inkscape:version="1.2.2 (732a01da63, 2022-12-09)"
   inkscape:export-filename="hl2-git-icon.png"
   inkscape:export-xdpi="96"
   inkscape:export-ydpi="96"
   xmlns:inkscape="http://www.inkscape.org/namespaces/inkscape"
   xmlns:sodipodi="http://sodipodi.sourceforge.net/DTD/sodipodi-0.dtd"
   xmlns="http://www.w3.org/2000/svg"
   xmlns:svg="http://www.w3.org/2000/svg"
   xmlns:rdf="http://www.w3.org/1999/02/22-rdf-syntax-ns#"
   xmlns:cc="http://creativecommons.org/ns#"
   xmlns:dc="http://purl.org/dc/elements/1.1/"><defs
     id="defs26244"><clipPath
       id="a"><path
         d="M0 .113h91.887V92H0Zm0 0"
         id="path5925" /></clipPath></defs><sodipodi:namedview
     id="namedview26242"
     pagecolor="#ffffff"
     bordercolor="#000000"
     borderopacity="0.24705882"
     inkscape:showpageshadow="2"
     inkscape:pageopacity="0.0"
     inkscape:pagecheckerboard="true"
     inkscape:deskcolor="#d1d1d1"
     showgrid="false"
     inkscape:zoom="0.70917838"
     inkscape:cx="-14.100825"
     inkscape:cy="-59.223464"
     inkscape:window-width="2560"
     inkscape:window-height="1334"
     inkscape:window-x="-11"
     inkscape:window-y="-11"
     inkscape:window-maximized="1"
     inkscape:current-layer="svg26240" /><metadata
     id="metadata26216"><rdf:RDF><cc:Work
         rdf:about=""><dc:format>image/svg+xml</dc:format><dc:type
           rdf:resource="http://purl.org/dc/dcmitype/StillImage" /></cc:Work></rdf:RDF></metadata><g
     stroke-linecap="round"
     text-anchor="middle"
     id="g26238"
     transform="matrix(0.66984538,-0.66161884,0.66161884,0.66984538,-650.63208,413.46758)"><text
       x="67.14286"
       y="198.92857"
       fill="none"
       fill-rule="evenodd"
       font-family="'Palatino Linotype'"
       font-size="24px"
       stroke="#008080"
       stroke-width="10"
       text-align="center"
       style="line-height:80"
       xml:space="preserve"
       id="text26228"><tspan
         x="67.14286"
         y="198.92857"
         id="tspan26226" /></text><text
       x="131.42857"
       y="159.64285"
       fill="none"
       fill-rule="evenodd"
       font-family="'Palatino Linotype'"
       font-size="24px"
       stroke="#008080"
       stroke-width="0"
       text-align="center"
       style="line-height:80"
       xml:space="preserve"
       id="text26232"><tspan
         x="131.42857"
         y="159.64285"
         fill="#000000"
         fill-rule="nonzero"
         font-family="'Nirmala Text'"
         stroke="none"
         id="tspan26230" /></text><text
       transform="rotate(44.68232)"
       x="324.08255"
       y="14.014576"
       fill="#ffcc00"
       font-family="'Trebuchet MS'"
       font-size="114.068px"
       stroke-width="0"
       text-align="center"
       style="line-height:80;fill:#fb7e14;fill-opacity:1"
       xml:space="preserve"
       id="text26236"><tspan
         x="324.08255"
         y="14.014576"
         fill="#ffcc00"
         font-family="'Trebuchet MS'"
         font-weight="bold"
         stroke-width="0"
         id="tspan26234"
         style="fill:#fb7e14;fill-opacity:1">HTML</tspan></text></g><text
     transform="rotate(-30.603278)"
     x="-144.04881"
     y="-18.092192"
     fill="#cccccc"
     font-family="HalfLife2"
     font-size="236.76px"
     stroke="#f2f2f2"
     stroke-linecap="round"
     stroke-width="0"
     text-align="center"
     text-anchor="middle"
     style="line-height:1.25"
     xml:space="preserve"
     id="text26220"><tspan
       x="-144.04881"
       y="-18.092192"
       fill="#cccccc"
       stroke="#f2f2f2"
       stroke-width="0"
       id="tspan26218">^</tspan></text><rect
     x="-92.728615"
     y="-74.67347"
     width="394.18808"
     height="394.18808"
     fill="#1a1a1a"
     id="rect26222"
     style="stroke-width:1.5398;fill:#fb7e14;fill-opacity:1" /><rect
     x="-365.3317"
     y="-331.24573"
     width="394.18808"
     height="394.18808"
     fill="#1a1a1a"
     id="rect26222-0"
     style="fill:#1a1a1a;fill-opacity:1;stroke-width:1.5398"
     transform="rotate(-45)" /><path
     d="m 546.62111,212.18478 12.96069,19.60452 16.14545,-10.67388 20.16373,16.08597 1.21112,108.99705 24.2175,-16.01035 0.86541,-75.14807 61.56551,42.98964 28.70239,-35.54819 -17.58315,-14.06263 -13.29062,16.24409 -104.39695,-72.6815 z"
     fill="#fb7e14"
     stroke-width="0.9071"
     id="path26224" /><path
     style="fill:#1a1a1a;fill-opacity:1;fill-rule:nonzero;stroke:none;stroke-width:0;stroke-dasharray:none"
     d="M 303.54589,127.99393 140.83335,-34.706438 a 24.001319,24.001319 0 0 0 -33.95388,0 L 73.104038,-0.91479942 115.956,41.937168 a 28.511198,28.511198 0 0 1 29.32233,6.8297 28.52742,28.52742 0 0 1 6.7689,29.512956 l 41.31485,41.302696 a 28.503088,28.503088 0 0 1 29.51701,6.78104 28.551755,28.551755 0 0 1 0,40.38208 28.592311,28.592311 0 0 1 -40.41451,0 28.567977,28.567977 0 0 1 -6.19705,-31.06624 L 137.73892,97.162914 V 198.5419 a 28.551755,28.551755 0 0 1 7.54349,45.78824 28.551755,28.551755 0 0 1 -40.38208,0 28.551755,28.551755 0 0 1 0,-40.38613 28.632867,28.632867 0 0 1 9.34422,-6.24162 V 95.390584 A 28.588255,28.588255 0 0 1 98.751938,57.940744 L 56.500248,15.680909 -55.078726,127.23145 a 24.029708,24.029708 0 0 0 0,33.94986 L 107.64194,323.90193 a 24.029708,24.029708 0 0 0 33.94576,0 L 303.54589,161.94374 a 24.029708,24.029708 0 0 0 0,-33.94981"
     id="path5930"
     clip-path="url(#clipPath5945)" /><rect
     x="113.26617"
     y="103.48067"
     width="394.18808"
     height="394.18808"
     fill="#1a1a1a"
     id="rect11277"
     style="fill:#1a1a1a;fill-opacity:1;stroke-width:1.5398"
     transform="rotate(-45)" /><rect
     x="-234.71437"
     y="307.88184"
     width="394.18808"
     height="394.18808"
     fill="#1a1a1a"
     id="rect11279"
     style="fill:#1a1a1a;fill-opacity:1;stroke-width:1.5398"
     transform="rotate(-45)" /><rect
     x="-538.82343"
     y="7.7610946"
     width="394.18808"
     height="394.18808"
     fill="#1a1a1a"
     id="rect11281"
     style="fill:#1a1a1a;fill-opacity:1;stroke-width:1.5398"
     transform="rotate(-45)" /></svg>
